<svg xmlns="http://www.w3.org/2000/svg" width="75" height="78"><g fill="none" fill-rule="evenodd"><path fill="#436E7C" d="M71 74.4c0 1.7-13.9 3.1-31 3.1-17.2 0-31-1.4-31-3 0-1.8 13.8-3.2 31-3.2 17.1 0 31 1.4 31 3.1" opacity=".2"/><path fill="#E8F7FF" d="M22.8 39.3L26.4 57a3 3 0 0 0 3.5 2.3l27.8-5.7A3 3 0 0 0 60 50L50.8 4.7a3 3 0 0 0-3.5-2.3L19.5 8.1a3 3 0 0 0-2.3 3.5l2.6 12.9"/><path fill="#FFF" d="M25.8 32.8l2.4 12.1a2.3 2.3 0 0 0 2.6 1.6L52 42c1.2-.2 2-1.3 1.8-2.4L47.3 8.5c-.2-1.1-1.4-1.8-2.6-1.6l-21 4.4c-1.3.2-2 1.3-1.8 2.4l1.8 8.9"/><path fill="#436E7C" d="M42.8 51.3c-1.3.2-2.4-.6-2.7-1.8-.2-1.3.5-2.4 1.8-2.7 1.2-.2 2.4.5 2.6 1.8.3 1.2-.5 2.4-1.7 2.7"/><path fill="#0094F9" d="M43.2 37.2h1.3l.1-.1a9.7 9.7 0 0 0 1.9-5.2v-.2l-.1-.2a9.7 9.7 0 0 0-5.8-2.6h-.3a14 14 0 0 0-2 1.9 9.4 9.4 0 0 1-2.5-2.7A9.4 9.4 0 0 1 34 25l2.4-1.3v-.1l.1-.2c.6-1.9.3-4.5-.6-6.3v-.2h-.3a12 12 0 0 0-6 .3h-.2v.3c-1 2.5-.7 7.2 3.3 13.2 4 5.3 8 6.5 10.4 6.6"/><path fill="#436E7C" d="M22.5 34.7a.6.6 0 1 1-1.2.3.6.6 0 0 1 1.2-.3"/><path stroke="#436E7C" d="M22.5 34.7a.6.6 0 1 1-1.2.3.6.6 0 0 1 1.2-.3z"/><path stroke="#436E7C" stroke-linecap="round" stroke-width="3" d="M20.5 28l.8 3.7"/><path stroke="#D9E2E5" stroke-linecap="round" stroke-width="3" d="M64.3 20.6a9.1 9.1 0 0 1 2 8.7M67.9 15c5 5.2 6.5 11.9 4.6 20m-61.4 4.3a9.1 9.1 0 0 1-2-8.7M7.7 46.3c-5-5.3-6.5-12-4.5-20"/><path stroke="#436E7C" stroke-linecap="round" stroke-width="3" d="M22.8 39.3L26.4 57a3 3 0 0 0 3.5 2.3l27.8-5.7A3 3 0 0 0 60 50L50.8 4.7a3 3 0 0 0-3.5-2.3L19.5 8.1a3 3 0 0 0-2.3 3.5l2.6 12.9"/></g></svg>